/vscmnt/brussel_pixiu_data/_data_brussel/112/vsc11236/PredSimResults/SUBJ07opt3D/trackIG/worker_03.mot
version=1
nRows=4
nColumns=50
inDegrees=yes
endheader
                time	         pelvis_tilt	         pelvis_list	     pelvis_rotation	           pelvis_tx	           pelvis_ty	           pelvis_tz	       hip_flexion_r	     hip_adduction_r	      hip_rotation_r	        knee_angle_r	       ankle_angle_r	         mtp_angle_r	       hip_flexion_l	     hip_adduction_l	      hip_rotation_l	        knee_angle_l	       ankle_angle_l	         mtp_angle_l	    lumbar_extension	      lumbar_bending	     lumbar_rotation	 ercspn_r/activation	 intobl_r/activation	 extobl_r/activation	    abd_r/activation	    add_r/activation	hamstrings_r/activation	bifemsh_r/activation	glut_max_r/activation	iliopsoas_r/activation	rect_fem_r/activation	  vasti_r/activation	gastroc_r/activation	 soleus_r/activation	tib_ant_r/activation	 ercspn_l/activation	 intobl_l/activation	 extobl_l/activation	    abd_l/activation	    add_l/activation	hamstrings_l/activation	bifemsh_l/activation	glut_max_l/activation	iliopsoas_l/activation	rect_fem_l/activation	  vasti_l/activation	gastroc_l/activation	 soleus_l/activation	tib_ant_l/activation	
          0.66608688	         -2.00359173	          0.55401759	         -8.31269396	          0.53286950	          0.86523117	          0.01878809	        -11.66022089	         -0.06953148	          2.61405546	         -7.75197483	         11.15976005	         20.18558221	         25.13271512	         -1.62466133	         -2.48451716	         -9.13903991	          0.22987551	          0.23745212	         -7.36975763	          2.54374935	         -0.34762079	          0.06792296	          0.01000259	          0.01000416	          0.04924467	          0.01000886	          0.01069614	          0.09543767	          0.01195441	          0.11602657	          0.01029217	          0.01000794	          0.12274099	          0.25978089	          0.01838861	          0.12110497	          0.12217001	          0.01001294	          0.01002921	          0.10134011	          0.02943943	          0.07704725	          0.05172392	          0.01635698	          0.01087017	          0.01217871	          0.01433964	          0.01223391	          0.30889890	
          0.67940861	         -2.05285338	          0.45969214	         -8.18061508	          0.54537454	          0.86402623	          0.01789759	        -12.04617165	         -0.06286515	          2.09954651	         -8.54852828	         10.76177687	         21.49175474	         24.64323525	         -1.43512802	         -2.22054237	         -9.71475325	          0.03168920	          0.23228813	         -7.25580225	          2.20424166	         -0.10977544	          0.08106637	          0.01000217	          0.01000564	          0.04029963	          0.01001381	          0.01197878	          0.07810224	          0.01106009	          0.09494902	          0.01011083	          0.01305533	          0.10311817	          0.25477465	          0.01504802	          0.10688068	          0.12700998	          0.01000857	          0.01017187	          0.09332664	          0.03452300	          0.06311651	          0.06200068	          0.01338730	          0.01001079	          0.01000402	          0.01174920	          0.01001400	          0.33293070	
          0.69273035	         -2.09736267	          0.36195788	         -7.99943947	          0.55805421	          0.86306084	          0.01689333	        -12.36163417	         -0.04934685	          1.56073347	         -9.49366674	         10.24070849	         22.81156658	         24.16328187	         -1.27193722	         -1.97598622	        -10.28200564	         -0.27286711	          0.22724356	         -7.13593544	          1.85209160	          0.13703473	          0.09595573	          0.01000165	          0.01000513	          0.03297914	          0.01000589	          0.01069655	          0.06391632	          0.01002290	          0.07770075	          0.02227952	          0.01558445	          0.08438537	          0.24536072	          0.01231450	          0.12019036	          0.10986816	          0.01000646	          0.05017450	          0.11184377	          0.03878097	          0.05166806	          0.06242270	          0.01095816	          0.01001397	          0.01028524	          0.01000923	          0.01000281	          0.36008370	
          0.70605209	         -2.13657121	          0.25380397	         -7.76975001	          0.57084537	          0.86245241	          0.01577962	        -12.58245024	         -0.02158545	          0.99804447	        -10.61326433	          9.54650031	         24.14444742	         23.73131061	         -1.12962989	         -1.78661577	        -10.93526876	         -0.56689264	          0.21854931	         -7.01326805	          1.49778111	          0.38776396	          0.11318101	          0.01000217	          0.01000686	          0.02698809	          0.01000845	          0.01077369	          0.05230760	          0.01003985	          0.06358584	          0.01824628	          0.02011925	          0.06905457	          0.23228279	          0.01007805	          0.12124974	          0.08990957	          0.01000749	          0.07643139	          0.11919788	          0.04323443	          0.04230327	          0.06403086	          0.01001413	          0.01001770	          0.02164925	          0.01001076	          0.01000385	          0.37855164	
